:SAMPLES-PER-SECOND 30
:FULLY-SPECIFIED
:DEGREES
42
root  -12.9306 40.0885 -11.1189 172.953 -64.6774 -175.928
RightUpLeg  -0.552564 -11.1004 -1.21408
RightLeg  16.9416 -5.34356 2.69472
RightFoot  -12.6552 -0.0875391 -0.165803
RightToes  0.000482159 0.542163 -0.142577
Spine  15.0668 -1.25012 9.83269
Spine1  10.172 -0.105473 0.117365
HEad  6.4753 4.48956 -5.54624
LeftShoulder1  8.64751 -13.4722 -44.3632
LeftArm  4.14928 -1.77164 -32.0405
LeftForeArm  24.4103 -19.3707 -4.56407
LeftHand  -0.25398 0.0180481 5.50724
RightShoulder  5.29834 10.1173 32.9552
RightArm  -7.46605 11.8965 27.4807
RightForeArm  10.5098 12.4533 6.59624
RightHand  -1.08748 4.19775 -13.4605
LeftUpLeg  -21.767 14.3104 -0.33069
LeftLeg  29.4594 4.89133 3.46953
LeftFoot  -2.70786 0.405091 -5.15703
LeftToes  1.06247e-005 4.65855e-005 -8.18504e-006
43
root  -13.9115 40.0572 -11.7015 172.343 -64.7561 -175.231
RightUpLeg  2.01759 -10.1134 -1.06295
RightLeg  15.6571 -6.24912 2.95435
RightFoot  -13.7251 -0.0938418 -0.0131098
RightToes  0.000482159 0.542163 -0.142577
Spine  14.5088 -0.944973 10.753
Spine1  10.5743 0.570896 -1.15341
HEad  6.20975 3.83899 -5.41631
LeftShoulder1  8.69966 -13.5665 -44.3854
LeftArm  3.17484 -0.0666458 -31.0247
LeftForeArm  24.4938 -19.1648 -4.59159
LeftHand  -0.25398 0.0180481 5.50724
RightShoulder  5.21456 10.0734 32.4643
RightArm  -6.24989 14.878 26.6282
RightForeArm  6.84977 14.3688 6.43382
RightHand  -1.2166 4.63685 -14.3778
LeftUpLeg  -21.4224 17.1298 -1.81882
LeftLeg  18.2146 3.32857 0.993806
LeftFoot  -1.42348 0.443911 -5.01455
LeftToes  1.06247e-005 4.65855e-005 -8.18504e-006
44
root  -14.9333 39.9953 -12.298 171.745 -64.9348 -174.733
RightUpLeg  4.80146 -9.66657 -1.00142
RightLeg  14.4843 -6.83874 3.1331
RightFoot  -14.9207 -0.110121 -0.288557
RightToes  0.000482159 0.542163 -0.142577
Spine  14.0494 -0.740407 10.9898
Spine1  11.1724 1.02881 -1.99912
HEad  6.04875 3.49597 -5.33887
LeftShoulder1  8.73267 -13.6066 -44.4524
LeftArm  1.94237 1.88478 -30.1301
LeftForeArm  24.5981 -18.8032 -4.65711
LeftHand  -0.25398 0.0180481 5.50724
RightShoulder  5.13004 10.0121 32.0123
RightArm  -4.95408 17.7217 26.0836
RightForeArm  4.09448 16.1016 6.14747
RightHand  -1.26811 4.54838 -15.084
LeftUpLeg  -19.5444 13.1882 -0.27741
LeftLeg  6.60139 9.24493 -2.78753
LeftFoot  0.198791 0.49515 -4.91617
LeftToes  1.06247e-005 4.65855e-005 -8.18504e-006
45
root  -16.0253 39.8265 -12.9125 171.04 -65.354 -174.36
RightUpLeg  7.56822 -9.93567 -1.15755
RightLeg  14.1835 -6.82663 3.13233
RightFoot  -16.7651 -0.106031 0.112196
RightToes  0.000482159 0.542163 -0.142577
Spine  13.7911 -0.629608 10.6045
Spine1  11.6041 1.1757 -2.26258
HEad  6.0361 3.27698 -5.05145
LeftShoulder1  8.75241 -13.6096 -44.5494
LeftArm  0.710399 3.80494 -29.2689
LeftForeArm  24.7008 -17.8298 -4.95968
LeftHand  -0.25398 0.0180481 5.50724
RightShoulder  5.05416 9.94572 31.6335
RightArm  -4.02708 20.1696 26.0157
RightForeArm  2.65657 17.5487 5.80117
RightHand  -1.33702 4.6903 -15.6637
LeftUpLeg  -17.4731 3.69427 3.21832
LeftLeg  -3.08706 22.3899 -7.56434
LeftFoot  0.906621 0.505001 -4.76461
LeftToes  1.06247e-005 4.65855e-005 -8.18504e-006
46
root  -17.2022 39.5316 -13.5417 170.121 -66.1255 -173.825
RightUpLeg  10.0469 -11.1917 -1.53406
RightLeg  15.0949 -5.99322 2.87377
RightFoot  -18.8378 -0.050534 1.18694
RightToes  0.000482159 0.542163 -0.142577
Spine  13.6092 -0.628731 10.1107
Spine1  11.7844 1.12314 -2.36586
HEad  6.10901 2.90215 -4.44296
LeftShoulder1  8.76581 -13.6501 -44.5107
LeftArm  -0.777581 5.42812 -28.457
LeftForeArm  25.2793 -16.0245 -5.55579
LeftHand  -0.25398 0.0180481 5.50724
RightShoulder  4.97863 9.85721 31.3149
RightArm  -3.80026 21.6939 26.6053
RightForeArm  2.06463 19.0369 5.37385
RightHand  -1.40975 4.98169 -16.0486
LeftUpLeg  -17.6309 3.89744 2.4657
LeftLeg  -5.28252 26.1707 -8.55884
LeftFoot  -0.436545 0.480964 -4.98105
LeftToes  1.06247e-005 4.65855e-005 -8.18504e-006
